<mxfile host="Electron" modified="2023-10-02T18:15:28.348Z" agent="Mozilla/5.0 (Windows NT 10.0; Win64; x64) AppleWebKit/537.36 (KHTML, like Gecko) draw.io/21.7.5 Chrome/114.0.5735.289 Electron/25.8.1 Safari/537.36" etag="5vnRsKY4V5oZ4SPfFnjA" version="21.7.5" type="device">
  <diagram name="Página-1" id="XsrAczEnIjGChWDDZnYV">
    <mxGraphModel dx="733" dy="443" grid="1" gridSize="10" guides="1" tooltips="1" connect="1" arrows="1" fold="1" page="1" pageScale="1" pageWidth="827" pageHeight="1169" math="0" shadow="0">
      <root>
        <mxCell id="0" />
        <mxCell id="1" parent="0" />
        <mxCell id="7QFaUHLu2x52ZEiFpkuH-2" value="&lt;strong&gt;Cliente&lt;/strong&gt;" style="shape=umlActor;verticalLabelPosition=bottom;verticalAlign=top;html=1;outlineConnect=0;" vertex="1" parent="1">
          <mxGeometry x="70" y="280" width="30" height="60" as="geometry" />
        </mxCell>
        <mxCell id="7QFaUHLu2x52ZEiFpkuH-3" value="Sistema de Controle Bancário" style="swimlane;whiteSpace=wrap;html=1;" vertex="1" parent="1">
          <mxGeometry x="200" y="80" width="360" height="430" as="geometry" />
        </mxCell>
        <mxCell id="7QFaUHLu2x52ZEiFpkuH-9" value="&lt;strong&gt;Abrir Conta&lt;/strong&gt;" style="ellipse;whiteSpace=wrap;html=1;" vertex="1" parent="7QFaUHLu2x52ZEiFpkuH-3">
          <mxGeometry x="40" y="60" width="110" height="60" as="geometry" />
        </mxCell>
        <mxCell id="7QFaUHLu2x52ZEiFpkuH-11" value="&lt;strong&gt;Depositar&lt;/strong&gt;" style="ellipse;whiteSpace=wrap;html=1;" vertex="1" parent="7QFaUHLu2x52ZEiFpkuH-3">
          <mxGeometry x="40" y="180" width="110" height="55" as="geometry" />
        </mxCell>
        <mxCell id="7QFaUHLu2x52ZEiFpkuH-12" value="&lt;strong&gt;Sacar&lt;/strong&gt;" style="ellipse;whiteSpace=wrap;html=1;" vertex="1" parent="7QFaUHLu2x52ZEiFpkuH-3">
          <mxGeometry x="200" y="235" width="110" height="60" as="geometry" />
        </mxCell>
        <mxCell id="7QFaUHLu2x52ZEiFpkuH-10" value="&lt;strong&gt;Encerrar Conta&lt;/strong&gt;" style="ellipse;whiteSpace=wrap;html=1;" vertex="1" parent="7QFaUHLu2x52ZEiFpkuH-3">
          <mxGeometry x="200" y="120" width="110" height="60" as="geometry" />
        </mxCell>
        <mxCell id="7QFaUHLu2x52ZEiFpkuH-13" value="&lt;strong&gt;Emitir Saldo/Extrato&lt;/strong&gt;" style="ellipse;whiteSpace=wrap;html=1;" vertex="1" parent="7QFaUHLu2x52ZEiFpkuH-3">
          <mxGeometry x="40" y="295" width="110" height="60" as="geometry" />
        </mxCell>
        <mxCell id="7QFaUHLu2x52ZEiFpkuH-14" value="&lt;strong&gt;Manter Cadastro&lt;/strong&gt;" style="ellipse;whiteSpace=wrap;html=1;" vertex="1" parent="7QFaUHLu2x52ZEiFpkuH-3">
          <mxGeometry x="194" y="355" width="116" height="60" as="geometry" />
        </mxCell>
        <mxCell id="7QFaUHLu2x52ZEiFpkuH-22" value="Extends" style="endArrow=block;endSize=16;endFill=0;html=1;rounded=0;entryX=0.5;entryY=0;entryDx=0;entryDy=0;" edge="1" parent="7QFaUHLu2x52ZEiFpkuH-3" target="7QFaUHLu2x52ZEiFpkuH-10">
          <mxGeometry width="160" relative="1" as="geometry">
            <mxPoint x="150" y="89.58000000000001" as="sourcePoint" />
            <mxPoint x="310" y="89.58000000000001" as="targetPoint" />
          </mxGeometry>
        </mxCell>
        <mxCell id="7QFaUHLu2x52ZEiFpkuH-23" value="Include" style="endArrow=open;endSize=12;dashed=1;html=1;rounded=0;exitX=0;exitY=1;exitDx=0;exitDy=0;entryX=1;entryY=0;entryDx=0;entryDy=0;" edge="1" parent="7QFaUHLu2x52ZEiFpkuH-3" source="7QFaUHLu2x52ZEiFpkuH-10" target="7QFaUHLu2x52ZEiFpkuH-13">
          <mxGeometry width="160" relative="1" as="geometry">
            <mxPoint x="120" y="200" as="sourcePoint" />
            <mxPoint x="280" y="200" as="targetPoint" />
            <mxPoint as="offset" />
          </mxGeometry>
        </mxCell>
        <mxCell id="7QFaUHLu2x52ZEiFpkuH-6" value="&lt;strong&gt;Funcionário do Banco&lt;/strong&gt;" style="shape=umlActor;verticalLabelPosition=bottom;verticalAlign=top;html=1;outlineConnect=0;" vertex="1" parent="1">
          <mxGeometry x="670" y="270" width="30" height="60" as="geometry" />
        </mxCell>
        <mxCell id="7QFaUHLu2x52ZEiFpkuH-16" value="" style="endArrow=open;endFill=1;endSize=12;html=1;rounded=0;entryX=0;entryY=0.5;entryDx=0;entryDy=0;exitX=1;exitY=0.3333333333333333;exitDx=0;exitDy=0;exitPerimeter=0;" edge="1" parent="1" source="7QFaUHLu2x52ZEiFpkuH-2" target="7QFaUHLu2x52ZEiFpkuH-9">
          <mxGeometry width="160" relative="1" as="geometry">
            <mxPoint x="120" y="287.08" as="sourcePoint" />
            <mxPoint x="280" y="287.08" as="targetPoint" />
          </mxGeometry>
        </mxCell>
        <mxCell id="7QFaUHLu2x52ZEiFpkuH-17" value="" style="endArrow=open;endFill=1;endSize=12;html=1;rounded=0;entryX=0;entryY=0.5;entryDx=0;entryDy=0;" edge="1" parent="1" target="7QFaUHLu2x52ZEiFpkuH-11">
          <mxGeometry width="160" relative="1" as="geometry">
            <mxPoint x="100" y="299.58" as="sourcePoint" />
            <mxPoint x="260" y="299.58" as="targetPoint" />
          </mxGeometry>
        </mxCell>
        <mxCell id="7QFaUHLu2x52ZEiFpkuH-18" value="" style="endArrow=open;endFill=1;endSize=12;html=1;rounded=0;entryX=0;entryY=0;entryDx=0;entryDy=0;" edge="1" parent="1" target="7QFaUHLu2x52ZEiFpkuH-10">
          <mxGeometry width="160" relative="1" as="geometry">
            <mxPoint x="100" y="299.58" as="sourcePoint" />
            <mxPoint x="260" y="299.58" as="targetPoint" />
          </mxGeometry>
        </mxCell>
        <mxCell id="7QFaUHLu2x52ZEiFpkuH-19" value="" style="endArrow=open;endFill=1;endSize=12;html=1;rounded=0;entryX=0;entryY=0.5;entryDx=0;entryDy=0;" edge="1" parent="1" target="7QFaUHLu2x52ZEiFpkuH-12">
          <mxGeometry width="160" relative="1" as="geometry">
            <mxPoint x="100" y="299.58" as="sourcePoint" />
            <mxPoint x="260" y="299.58" as="targetPoint" />
          </mxGeometry>
        </mxCell>
        <mxCell id="7QFaUHLu2x52ZEiFpkuH-20" value="" style="endArrow=open;endFill=1;endSize=12;html=1;rounded=0;entryX=0;entryY=0.5;entryDx=0;entryDy=0;" edge="1" parent="1" target="7QFaUHLu2x52ZEiFpkuH-13">
          <mxGeometry width="160" relative="1" as="geometry">
            <mxPoint x="100" y="299.58" as="sourcePoint" />
            <mxPoint x="260" y="299.58" as="targetPoint" />
          </mxGeometry>
        </mxCell>
        <mxCell id="7QFaUHLu2x52ZEiFpkuH-21" value="" style="endArrow=open;endFill=1;endSize=12;html=1;rounded=0;exitX=0;exitY=0.3333333333333333;exitDx=0;exitDy=0;exitPerimeter=0;entryX=0.5;entryY=0;entryDx=0;entryDy=0;" edge="1" parent="1" source="7QFaUHLu2x52ZEiFpkuH-6" target="7QFaUHLu2x52ZEiFpkuH-14">
          <mxGeometry width="160" relative="1" as="geometry">
            <mxPoint x="320" y="370" as="sourcePoint" />
            <mxPoint x="480" y="370" as="targetPoint" />
          </mxGeometry>
        </mxCell>
      </root>
    </mxGraphModel>
  </diagram>
</mxfile>
